<?xml version="1.0" encoding="UTF-8" standalone="no"?>
<!-- Created with Inkscape (http://www.inkscape.org/) -->

<svg
   xmlns:dc="http://purl.org/dc/elements/1.1/"
   xmlns:cc="http://creativecommons.org/ns#"
   xmlns:rdf="http://www.w3.org/1999/02/22-rdf-syntax-ns#"
   xmlns:svg="http://www.w3.org/2000/svg"
   xmlns="http://www.w3.org/2000/svg"
   xmlns:sodipodi="http://sodipodi.sourceforge.net/DTD/sodipodi-0.dtd"
   xmlns:inkscape="http://www.inkscape.org/namespaces/inkscape"
   width="150"
   height="250"
   viewBox="0 0 39.687499 66.145835"
   version="1.1"
   id="svg8"
   inkscape:version="0.92.3 (2405546, 2018-03-11)"
   sodipodi:docname="TankIndicator_Image.svg"
   inkscape:export-filename="F:\Beuth\Creative Programming und Game Design\Repository\SpaceRush\Assets\Materials\HUD\HUD_Layout\TankIndicator_Image.png"
   inkscape:export-xdpi="96"
   inkscape:export-ydpi="96">
  <defs
     id="defs2" />
  <sodipodi:namedview
     id="base"
     pagecolor="#ffffff"
     bordercolor="#ff0000"
     borderopacity="1"
     inkscape:pageopacity="0"
     inkscape:pageshadow="2"
     inkscape:zoom="1.979899"
     inkscape:cx="-109.39777"
     inkscape:cy="76.345216"
     inkscape:document-units="mm"
     inkscape:current-layer="layer1"
     showgrid="false"
     inkscape:pagecheckerboard="true"
     inkscape:showpageshadow="false"
     inkscape:window-width="1920"
     inkscape:window-height="1058"
     inkscape:window-x="1912"
     inkscape:window-y="760"
     inkscape:window-maximized="1"
     units="px" />
  <metadata
     id="metadata5">
    <rdf:RDF>
      <cc:Work
         rdf:about="">
        <dc:format>image/svg+xml</dc:format>
        <dc:type
           rdf:resource="http://purl.org/dc/dcmitype/StillImage" />
        <dc:title />
      </cc:Work>
    </rdf:RDF>
  </metadata>
  <g
     inkscape:label="Ebene 1"
     inkscape:groupmode="layer"
     id="layer1"
     transform="translate(0,-230.85415)">
    <path
       style="fill:none;stroke:#ffffff;stroke-width:1.05833333;stroke-miterlimit:4;stroke-dasharray:none;stroke-opacity:1"
       d="m 0.93497319,236.7743 c 0,0 0.49344741,-4.63901 18.50211481,-4.66509 17.369576,-0.0252 19.076918,4.66509 19.076918,4.66509 l 3e-6,9.22766 -0.6542,1.54745 0.6542,0.53683 10e-7,9.66868 -0.654201,1.48668 0.654201,0.78575 v 8.62657 l -0.654201,1.7067 0.654204,0.53676 v 8.8871 l -0.654204,1.35124 0.654204,0.68961 2e-6,7.97737 c 0,0 -0.736168,5.32603 -19.669122,5.36777 C 0.96684882,295.20989 0.93497319,289.8027 0.93497319,289.8027 v -8.0425 l 0.65436221,-0.62448 -0.65436221,-1.53216 v -8.77854 l 0.65436221,-0.4644 -0.65436221,-1.50408 v -9.01735 L 1.5893354,259.2416 0.93497319,257.98651 v -10.21147 l 0.65436221,-0.22563 -0.65436221,-1.13494 z"
       id="rect10"
       inkscape:connector-curvature="0"
       sodipodi:nodetypes="csccccccccccccccscccccccccccccc" />
    <path
       style="fill:none;stroke:#ffffff;stroke-width:1.05833333;stroke-linecap:butt;stroke-linejoin:miter;stroke-miterlimit:4;stroke-dasharray:none;stroke-opacity:1"
       d="m 0.93497319,236.7743 c 0,0 1.87502631,3.08803 18.35406481,3.01059 17.764227,-0.0833 19.224968,-3.01059 19.224968,-3.01059"
       id="path4574"
       inkscape:connector-curvature="0"
       sodipodi:nodetypes="csc" />
    <path
       style="fill:none;stroke:#ffffff;stroke-width:1.05833333;stroke-linecap:butt;stroke-linejoin:miter;stroke-miterlimit:4;stroke-dasharray:none;stroke-opacity:1"
       d="m 1.5893354,259.2416 c 0,0 1.809735,3.08803 17.7149486,3.0106 17.145651,-0.0833 18.555525,-3.0106 18.555525,-3.0106"
       id="path4578"
       inkscape:connector-curvature="0"
       sodipodi:nodetypes="csc" />
    <path
       style="fill:none;stroke:#ffffff;stroke-width:1.05833333;stroke-linecap:butt;stroke-linejoin:miter;stroke-miterlimit:4;stroke-dasharray:none;stroke-opacity:1"
       d="m 1.5893354,270.36062 c 0,0 1.809735,3.08804 17.7149486,3.01062 17.145651,-0.0833 18.555525,-3.01062 18.555525,-3.01062"
       id="path4582"
       inkscape:connector-curvature="0"
       sodipodi:nodetypes="csc" />
    <path
       style="fill:none;stroke:#ffffff;stroke-width:1.05833333;stroke-linecap:butt;stroke-linejoin:miter;stroke-miterlimit:4;stroke-dasharray:none;stroke-opacity:1"
       d="m 1.5893354,281.13572 c 0,0 1.809735,3.08806 17.7149486,3.01064 17.145651,-0.0833 18.555525,-3.01064 18.555525,-3.01064"
       id="path4586"
       inkscape:connector-curvature="0"
       sodipodi:nodetypes="csc" />
    <path
       sodipodi:nodetypes="csc"
       inkscape:connector-curvature="0"
       id="path4590"
       d="m 1.5893354,247.54941 c 0,0 1.809735,3.08806 17.7149486,3.01063 17.145651,-0.0833 18.555525,-3.01063 18.555525,-3.01063"
       style="fill:none;stroke:#ffffff;stroke-width:1.05833333;stroke-linecap:butt;stroke-linejoin:miter;stroke-miterlimit:4;stroke-dasharray:none;stroke-opacity:1" />
  </g>
</svg>
